<svg xmlns="http://www.w3.org/2000/svg" xmlns:xlink="http://www.w3.org/1999/xlink" aria-hidden="true" style="position: absolute; width: 0; height: 0; overflow: hidden;" version="1.1">
  <defs>
    <symbol id="full" viewBox="0 0 376 178">
			<g transform="translate(0.000000,225.000000) scale(0.100000,-0.100000)" fill="#FFFF" stroke="none">
				<path d="M750 1984 c-63 -12 -125 -39 -156 -66 -70 -62 -33 -148 89 -208 129 -62 300 -90 562 -90 306 0 495 48 495 126 0 117 -375 229 -800 239 -91 2 -176 1 -190 -1z"/>
				<path d="M584 1627 c18 -127 27 -259 25 -400 -2 -154 -2 -158 22 -183 33 -37 128 -78 229 -100 131 -29 466 -26 610 5 112 24 190 53 213 79 13 14 13 33 4 122 -10 99 2 362 19 426 l6 22 -56 -19 c-93 -30 -210 -42 -416 -42 -277 0 -454 29 -594 98 l-68 34 6 -42z"/>
				<path d="M408 1036 c-150 -66 -236 -130 -286 -215 -39 -66 -38 -157 1 -223 50 -85 146 -148 307 -202 184 -60 461 -92 705 -81 660 31 1026 163 1025 371 -1 116 -97 221 -285 311 -42 19 -79 33 -82 29 -4 -3 4 -42 16 -86 38 -129 19 -187 -79 -250 -232 -149 -815 -172 -1101 -44 -72 32 -133 96 -149 155 -9 34 -9 54 4 103 8 34 18 85 22 114 8 63 6 64 -98 18z"/>
				<path d="M572 919 c-26 -110 -10 -144 87 -193 96 -49 198 -67 406 -73 281 -8 496 29 618 107 65 41 75 66 53 135 -17 54 -18 54 -40 40 -12 -8 -49 -24 -82 -35 -277 -96 -811 -78 -976 34 -18 12 -38 25 -44 29 -7 4 -15 -13 -22 -44z"/>
			</g>
    </symbol>
    <symbol id="signet" viewBox="0 0 160 160">
      <g style="fill: currentColor">
        <path class="cls-1" d="M125,47.091,86,24.5743a12,12,0,0,0-12,0L35,47.091a12.0336,12.0336,0,0,0-6,10.3923v45.0334a12.0335,12.0335,0,0,0,6,10.3923l39,22.5166a11.9993,11.9993,0,0,0,12,0l39-22.5166a12.0335,12.0335,0,0,0,6-10.3923V57.4833A12.0336,12.0336,0,0,0,125,47.091Zm-2,55.4257a4,4,0,0,1-2,3.464L82,128.4974a4,4,0,0,1-4,0L39,105.9807a4,4,0,0,1-2-3.464V57.4833a4,4,0,0,1,2-3.4641L78,31.5025a4,4,0,0,1,4,0l39,22.5167a4,4,0,0,1,2,3.4641Z"/>
        <path class="cls-1" d="M103.0216,93.0379h-2.866a4,4,0,0,0-1.9246.4935L80.95,103.0167,61,91.4981V68.5206L80.95,57.002l17.2894,9.455a4,4,0,0,0,1.9192.4905h2.8632a2,2,0,0,0,2-2V62.2357a2,2,0,0,0-1.04-1.7547L84.793,49.9854a8.0391,8.0391,0,0,0-7.8428.09L57,61.5929A8.0243,8.0243,0,0,0,53,68.5216v22.976a8,8,0,0,0,4,6.9283l19.95,11.5185a8.0422,8.0422,0,0,0,7.8433.0879l19.19-10.5311a2,2,0,0,0,1.0378-1.7534v-2.71A2,2,0,0,0,103.0216,93.0379Z"/>
      </g>
    </symbol>
  </defs>
</svg>